<mxfile host="Electron" agent="Mozilla/5.0 (Windows NT 10.0; Win64; x64) AppleWebKit/537.36 (KHTML, like Gecko) draw.io/24.7.8 Chrome/128.0.6613.36 Electron/32.0.1 Safari/537.36" version="24.7.8">
  <diagram id="C5RBs43oDa-KdzZeNtuy" name="Page-1">
    <mxGraphModel dx="1235" dy="2022" grid="1" gridSize="10" guides="1" tooltips="1" connect="1" arrows="1" fold="1" page="1" pageScale="1" pageWidth="827" pageHeight="1169" math="0" shadow="0">
      <root>
        <mxCell id="WIyWlLk6GJQsqaUBKTNV-0" />
        <mxCell id="WIyWlLk6GJQsqaUBKTNV-1" parent="WIyWlLk6GJQsqaUBKTNV-0" />
        <mxCell id="_1Da5k6hInL0nZBLIpcG-1" style="edgeStyle=orthogonalEdgeStyle;rounded=0;orthogonalLoop=1;jettySize=auto;html=1;exitX=0.5;exitY=1;exitDx=0;exitDy=0;exitPerimeter=0;entryX=0.5;entryY=0;entryDx=0;entryDy=0;" parent="WIyWlLk6GJQsqaUBKTNV-1" source="kCFJliYLXddwyFQRdBJP-0" target="_1Da5k6hInL0nZBLIpcG-0" edge="1">
          <mxGeometry relative="1" as="geometry" />
        </mxCell>
        <mxCell id="kCFJliYLXddwyFQRdBJP-0" value="&lt;font style=&quot;font-size: 13px;&quot;&gt;Начало&lt;/font&gt;" style="strokeWidth=2;html=1;shape=mxgraph.flowchart.terminator;whiteSpace=wrap;" parent="WIyWlLk6GJQsqaUBKTNV-1" vertex="1">
          <mxGeometry x="309.5" y="-110" width="210" height="60" as="geometry" />
        </mxCell>
        <mxCell id="kCFJliYLXddwyFQRdBJP-18" style="edgeStyle=orthogonalEdgeStyle;rounded=0;orthogonalLoop=1;jettySize=auto;html=1;exitX=0.5;exitY=1;exitDx=0;exitDy=0;entryX=0.5;entryY=0;entryDx=0;entryDy=0;" parent="WIyWlLk6GJQsqaUBKTNV-1" source="kCFJliYLXddwyFQRdBJP-1" target="kCFJliYLXddwyFQRdBJP-2" edge="1">
          <mxGeometry relative="1" as="geometry" />
        </mxCell>
        <mxCell id="kCFJliYLXddwyFQRdBJP-1" value="&lt;font style=&quot;font-size: 13px;&quot;&gt;Получить уравнение луча из положения камеры и вектора взгяда&lt;/font&gt;" style="rounded=0;whiteSpace=wrap;html=1;absoluteArcSize=1;arcSize=14;strokeWidth=2;" parent="WIyWlLk6GJQsqaUBKTNV-1" vertex="1">
          <mxGeometry x="311" y="80" width="210" height="70" as="geometry" />
        </mxCell>
        <mxCell id="kCFJliYLXddwyFQRdBJP-19" style="edgeStyle=orthogonalEdgeStyle;rounded=0;orthogonalLoop=1;jettySize=auto;html=1;exitX=0.5;exitY=1;exitDx=0;exitDy=0;entryX=0.5;entryY=0;entryDx=0;entryDy=0;" parent="WIyWlLk6GJQsqaUBKTNV-1" source="kCFJliYLXddwyFQRdBJP-2" target="kCFJliYLXddwyFQRdBJP-3" edge="1">
          <mxGeometry relative="1" as="geometry" />
        </mxCell>
        <mxCell id="kCFJliYLXddwyFQRdBJP-2" value="&lt;font style=&quot;font-size: 13px;&quot;&gt;Вычислить пересечения луча со всеми сферами на сцене&lt;/font&gt;" style="rounded=0;whiteSpace=wrap;html=1;absoluteArcSize=1;arcSize=14;strokeWidth=2;" parent="WIyWlLk6GJQsqaUBKTNV-1" vertex="1">
          <mxGeometry x="311" y="180" width="210" height="70" as="geometry" />
        </mxCell>
        <mxCell id="kCFJliYLXddwyFQRdBJP-20" style="edgeStyle=orthogonalEdgeStyle;rounded=0;orthogonalLoop=1;jettySize=auto;html=1;exitX=0.5;exitY=1;exitDx=0;exitDy=0;entryX=0.5;entryY=0;entryDx=0;entryDy=0;" parent="WIyWlLk6GJQsqaUBKTNV-1" source="kCFJliYLXddwyFQRdBJP-3" target="kCFJliYLXddwyFQRdBJP-4" edge="1">
          <mxGeometry relative="1" as="geometry" />
        </mxCell>
        <mxCell id="kCFJliYLXddwyFQRdBJP-3" value="&lt;font style=&quot;font-size: 13px;&quot;&gt;Выбрать ближайшую к камере сферу, которую пересекает луч&lt;/font&gt;" style="rounded=0;whiteSpace=wrap;html=1;absoluteArcSize=1;arcSize=14;strokeWidth=2;" parent="WIyWlLk6GJQsqaUBKTNV-1" vertex="1">
          <mxGeometry x="312" y="270" width="209" height="70" as="geometry" />
        </mxCell>
        <mxCell id="kCFJliYLXddwyFQRdBJP-12" style="edgeStyle=orthogonalEdgeStyle;rounded=0;orthogonalLoop=1;jettySize=auto;html=1;exitX=0.5;exitY=1;exitDx=0;exitDy=0;entryX=0.5;entryY=0;entryDx=0;entryDy=0;" parent="WIyWlLk6GJQsqaUBKTNV-1" source="kCFJliYLXddwyFQRdBJP-4" target="kCFJliYLXddwyFQRdBJP-5" edge="1">
          <mxGeometry relative="1" as="geometry" />
        </mxCell>
        <mxCell id="kCFJliYLXddwyFQRdBJP-4" value="&lt;font style=&quot;font-size: 13px;&quot;&gt;Вычислить нормаль с возмущением в точке поверхности сферы, в которой она пересекается с лучом&lt;/font&gt;" style="rounded=0;whiteSpace=wrap;html=1;absoluteArcSize=1;arcSize=14;strokeWidth=2;" parent="WIyWlLk6GJQsqaUBKTNV-1" vertex="1">
          <mxGeometry x="318" y="360" width="203" height="70" as="geometry" />
        </mxCell>
        <mxCell id="kCFJliYLXddwyFQRdBJP-13" style="edgeStyle=orthogonalEdgeStyle;rounded=0;orthogonalLoop=1;jettySize=auto;html=1;exitX=0.5;exitY=1;exitDx=0;exitDy=0;entryX=0.5;entryY=0;entryDx=0;entryDy=0;" parent="WIyWlLk6GJQsqaUBKTNV-1" source="kCFJliYLXddwyFQRdBJP-5" target="kCFJliYLXddwyFQRdBJP-6" edge="1">
          <mxGeometry relative="1" as="geometry" />
        </mxCell>
        <mxCell id="kCFJliYLXddwyFQRdBJP-5" value="&lt;font style=&quot;font-size: 13px;&quot;&gt;Определить цвет поверхности в данной точке в соответствии с освещением и полученной нормалью&lt;/font&gt;" style="rounded=0;whiteSpace=wrap;html=1;absoluteArcSize=1;arcSize=14;strokeWidth=2;" parent="WIyWlLk6GJQsqaUBKTNV-1" vertex="1">
          <mxGeometry x="318" y="460" width="203" height="70" as="geometry" />
        </mxCell>
        <mxCell id="kCFJliYLXddwyFQRdBJP-6" value="&lt;font style=&quot;font-size: 13px;&quot;&gt;Определить отражаемость поверхности в данной точке&lt;/font&gt;" style="rounded=0;whiteSpace=wrap;html=1;absoluteArcSize=1;arcSize=14;strokeWidth=2;" parent="WIyWlLk6GJQsqaUBKTNV-1" vertex="1">
          <mxGeometry x="319" y="550" width="202" height="70" as="geometry" />
        </mxCell>
        <mxCell id="kCFJliYLXddwyFQRdBJP-15" style="edgeStyle=orthogonalEdgeStyle;rounded=0;orthogonalLoop=1;jettySize=auto;html=1;exitX=1;exitY=0.5;exitDx=0;exitDy=0;exitPerimeter=0;entryX=0.5;entryY=0;entryDx=0;entryDy=0;" parent="WIyWlLk6GJQsqaUBKTNV-1" source="kCFJliYLXddwyFQRdBJP-7" target="kCFJliYLXddwyFQRdBJP-10" edge="1">
          <mxGeometry relative="1" as="geometry" />
        </mxCell>
        <mxCell id="kCFJliYLXddwyFQRdBJP-21" style="edgeStyle=orthogonalEdgeStyle;rounded=0;orthogonalLoop=1;jettySize=auto;html=1;exitX=0;exitY=0.5;exitDx=0;exitDy=0;exitPerimeter=0;entryX=0.5;entryY=0;entryDx=0;entryDy=0;" parent="WIyWlLk6GJQsqaUBKTNV-1" source="kCFJliYLXddwyFQRdBJP-7" edge="1" target="_1Da5k6hInL0nZBLIpcG-3">
          <mxGeometry relative="1" as="geometry">
            <mxPoint x="280" y="790" as="targetPoint" />
          </mxGeometry>
        </mxCell>
        <mxCell id="kCFJliYLXddwyFQRdBJP-7" value="&lt;font style=&quot;font-size: 13px;&quot;&gt;Поверхность&lt;/font&gt;&lt;div&gt;&lt;font style=&quot;font-size: 13px;&quot;&gt;отражает&amp;nbsp;&lt;/font&gt;&lt;font style=&quot;background-color: initial; font-size: 13px;&quot;&gt;луч&amp;nbsp;&lt;/font&gt;&lt;span style=&quot;background-color: initial; font-size: 13px;&quot;&gt;или&lt;/span&gt;&lt;/div&gt;&lt;div&gt;&lt;span style=&quot;background-color: initial; font-size: 13px;&quot;&gt;достигнута&amp;nbsp;&lt;/span&gt;&lt;span style=&quot;font-size: 13px; background-color: initial;&quot;&gt;максимальная глубина&amp;nbsp;&lt;/span&gt;&lt;span style=&quot;font-size: 13px; background-color: initial;&quot;&gt;рекурсии&lt;/span&gt;&lt;/div&gt;" style="strokeWidth=2;html=1;shape=mxgraph.flowchart.decision;whiteSpace=wrap;" parent="WIyWlLk6GJQsqaUBKTNV-1" vertex="1">
          <mxGeometry x="319.5" y="650" width="200" height="110" as="geometry" />
        </mxCell>
        <mxCell id="kCFJliYLXddwyFQRdBJP-9" value="&lt;font style=&quot;font-size: 18px;&quot;&gt;Конец&lt;/font&gt;" style="strokeWidth=2;html=1;shape=mxgraph.flowchart.terminator;whiteSpace=wrap;" parent="WIyWlLk6GJQsqaUBKTNV-1" vertex="1">
          <mxGeometry x="229" y="880" width="134" height="60" as="geometry" />
        </mxCell>
        <mxCell id="kCFJliYLXddwyFQRdBJP-10" value="&lt;font style=&quot;font-size: 13px;&quot;&gt;Получить уравнение отраженного луча&lt;/font&gt;" style="rounded=0;whiteSpace=wrap;html=1;absoluteArcSize=1;arcSize=14;strokeWidth=2;" parent="WIyWlLk6GJQsqaUBKTNV-1" vertex="1">
          <mxGeometry x="481" y="780" width="200.5" height="70" as="geometry" />
        </mxCell>
        <mxCell id="kCFJliYLXddwyFQRdBJP-14" style="edgeStyle=orthogonalEdgeStyle;rounded=0;orthogonalLoop=1;jettySize=auto;html=1;exitX=0.5;exitY=1;exitDx=0;exitDy=0;entryX=0.5;entryY=0;entryDx=0;entryDy=0;entryPerimeter=0;" parent="WIyWlLk6GJQsqaUBKTNV-1" source="kCFJliYLXddwyFQRdBJP-6" target="kCFJliYLXddwyFQRdBJP-7" edge="1">
          <mxGeometry relative="1" as="geometry" />
        </mxCell>
        <mxCell id="kCFJliYLXddwyFQRdBJP-24" value="Да" style="text;html=1;align=center;verticalAlign=middle;whiteSpace=wrap;rounded=0;" parent="WIyWlLk6GJQsqaUBKTNV-1" vertex="1">
          <mxGeometry x="519.5" y="670" width="60" height="30" as="geometry" />
        </mxCell>
        <mxCell id="_1Da5k6hInL0nZBLIpcG-2" style="edgeStyle=orthogonalEdgeStyle;rounded=0;orthogonalLoop=1;jettySize=auto;html=1;exitX=0.5;exitY=1;exitDx=0;exitDy=0;entryX=0.5;entryY=0;entryDx=0;entryDy=0;" parent="WIyWlLk6GJQsqaUBKTNV-1" source="_1Da5k6hInL0nZBLIpcG-0" target="kCFJliYLXddwyFQRdBJP-1" edge="1">
          <mxGeometry relative="1" as="geometry" />
        </mxCell>
        <mxCell id="_1Da5k6hInL0nZBLIpcG-0" value="&lt;font style=&quot;font-size: 13px;&quot;&gt;Получить положение&lt;/font&gt;&lt;div&gt;&lt;font style=&quot;font-size: 13px;&quot;&gt;камеры,&amp;nbsp;&lt;/font&gt;&lt;span style=&quot;font-size: 13px; background-color: initial;&quot;&gt;вектор взгляда,&lt;/span&gt;&lt;/div&gt;&lt;div&gt;&lt;span style=&quot;font-size: 13px; background-color: initial;&quot;&gt;сцену,&amp;nbsp;&lt;/span&gt;&lt;span style=&quot;font-size: 13px; background-color: initial;&quot;&gt;глубину&lt;/span&gt;&lt;/div&gt;&lt;div&gt;&lt;span style=&quot;font-size: 13px; background-color: initial;&quot;&gt;рекурсии&lt;/span&gt;&lt;/div&gt;" style="shape=parallelogram;html=1;strokeWidth=2;perimeter=parallelogramPerimeter;whiteSpace=wrap;rounded=0;arcSize=12;size=0.23;" parent="WIyWlLk6GJQsqaUBKTNV-1" vertex="1">
          <mxGeometry x="311" y="-20" width="210" height="80" as="geometry" />
        </mxCell>
        <mxCell id="_1Da5k6hInL0nZBLIpcG-3" value="&lt;div&gt;&lt;span style=&quot;font-size: 13px;&quot;&gt;Вернуть цвет&lt;/span&gt;&lt;/div&gt;&lt;div&gt;&lt;span style=&quot;font-size: 13px;&quot;&gt;пикселя&lt;/span&gt;&lt;/div&gt;" style="shape=parallelogram;html=1;strokeWidth=2;perimeter=parallelogramPerimeter;whiteSpace=wrap;rounded=0;arcSize=12;size=0.23;" parent="WIyWlLk6GJQsqaUBKTNV-1" vertex="1">
          <mxGeometry x="200" y="780" width="192" height="70" as="geometry" />
        </mxCell>
        <mxCell id="_1Da5k6hInL0nZBLIpcG-4" style="edgeStyle=orthogonalEdgeStyle;rounded=0;orthogonalLoop=1;jettySize=auto;html=1;exitX=0.5;exitY=1;exitDx=0;exitDy=0;entryX=0.5;entryY=0;entryDx=0;entryDy=0;entryPerimeter=0;" parent="WIyWlLk6GJQsqaUBKTNV-1" source="_1Da5k6hInL0nZBLIpcG-3" target="kCFJliYLXddwyFQRdBJP-9" edge="1">
          <mxGeometry relative="1" as="geometry" />
        </mxCell>
        <mxCell id="LHurmATC4f9twr5sCSpI-0" style="edgeStyle=orthogonalEdgeStyle;rounded=0;orthogonalLoop=1;jettySize=auto;html=1;exitX=0.5;exitY=1;exitDx=0;exitDy=0;endArrow=none;endFill=0;" edge="1" parent="WIyWlLk6GJQsqaUBKTNV-1" source="kCFJliYLXddwyFQRdBJP-10">
          <mxGeometry relative="1" as="geometry">
            <mxPoint x="652" y="900" as="sourcePoint" />
            <mxPoint x="417" y="159" as="targetPoint" />
            <Array as="points">
              <mxPoint x="581" y="870" />
              <mxPoint x="700" y="870" />
              <mxPoint x="700" y="159" />
            </Array>
          </mxGeometry>
        </mxCell>
      </root>
    </mxGraphModel>
  </diagram>
</mxfile>
